<svg width="372" height="300" viewBox="0 0 372 300" fill="none" xmlns="http://www.w3.org/2000/svg">
<path d="M26.5938 271.168C30.1314 271.168 32.5849 271.685 33.9543 272.719C35.3522 273.752 36.0655 275.676 36.0655 278.462C36.0655 280.5 35.6803 282.051 34.9243 283.113C34.1968 284.147 32.9986 284.75 31.3296 284.894V285.066C33.3409 285.224 34.7674 285.927 35.609 287.191C36.4791 288.426 36.9213 290.206 36.9213 292.532C36.9213 295.332 36.2366 297.241 34.8672 298.275C33.4978 299.309 31.1584 299.825 27.849 299.825C23.1703 299.825 19.4615 299.711 16.7227 299.481V271.513C18.9194 271.283 22.2145 271.168 26.5938 271.168ZM21.6867 275.303V283.113H26.7649C28.4767 283.113 29.6321 282.855 30.2455 282.309C30.8874 281.778 31.2155 280.73 31.2155 279.151C31.2155 277.629 30.8731 276.609 30.1884 276.107C29.5037 275.576 28.2057 275.303 26.3085 275.303H21.6867ZM21.6867 286.846V295.633L26.9932 295.748C28.8904 295.748 30.1884 295.461 30.8731 294.886C31.5578 294.312 31.9002 293.207 31.9002 291.556C31.9002 289.718 31.5293 288.483 30.8161 287.823C30.0886 287.177 28.762 286.846 26.822 286.846H21.6867Z" fill="#D49961"/>
<path d="M76.3859 271.516V288.515C76.3859 292.736 75.6013 295.694 74.0465 297.416C72.4774 299.139 69.7956 300.001 66.0013 300.001C62.0357 300.001 59.2398 299.139 57.6137 297.416C55.9732 295.665 55.1602 292.693 55.1602 288.515V271.516H60.1813V288.515C60.1813 291.243 60.5807 293.109 61.3795 294.143C62.2069 295.148 63.6761 295.636 65.773 295.636C67.8271 295.636 69.2536 295.148 70.0524 294.143C70.8797 293.109 71.3077 291.243 71.3077 288.515V271.516H76.3859Z" fill="#D49961"/>
<path d="M118.257 271.516V297.589C118.257 298.852 117.644 299.484 116.431 299.484H112.437C111.895 299.484 111.482 299.369 111.182 299.139C110.868 298.881 110.611 298.479 110.383 297.933L102.509 280.819C101.553 278.637 100.997 277.244 100.854 276.627H100.398C100.541 277.704 100.626 279.096 100.626 280.819V299.484H95.6621V273.353C95.6621 272.133 96.304 271.516 97.6021 271.516H101.482C102.01 271.516 102.424 271.63 102.737 271.86C103.037 272.09 103.322 272.492 103.593 273.066L111.125 289.721C111.767 291.07 112.437 292.535 113.122 294.143H113.578C113.422 292.348 113.35 290.841 113.35 289.606V271.516H118.257Z" fill="#D49961"/>
<path d="M149.063 290.008V299.484H144.041V289.951L134.912 271.516H140.219L145.297 282.37C145.439 282.686 145.81 283.806 146.381 285.758H146.723C147.18 284.15 147.551 283.03 147.864 282.37L152.943 271.516H158.135L149.063 290.008Z" fill="#D49961"/>
<path d="M182.086 271.516H186.993C187.906 271.516 188.491 271.961 188.762 272.837L197.15 299.484H191.957L189.675 291.559H179.347L177.065 299.484H171.93L180.203 272.837C180.546 271.961 181.173 271.516 182.086 271.516ZM183.969 275.363L183.341 277.718L180.546 287.424H188.477L185.681 277.718C185.338 276.498 185.124 275.708 185.053 275.363H183.969Z" fill="#D49961"/>
<path d="M236.288 271.516V297.589C236.288 298.852 235.675 299.484 234.463 299.484H230.469C229.926 299.484 229.513 299.369 229.213 299.139C228.899 298.881 228.643 298.479 228.414 297.933L220.54 280.819C219.585 278.637 219.028 277.244 218.886 276.627H218.429C218.572 277.704 218.657 279.096 218.657 280.819V299.484H213.693V273.353C213.693 272.133 214.335 271.516 215.633 271.516H219.513C220.041 271.516 220.455 271.63 220.769 271.86C221.068 272.09 221.353 272.492 221.624 273.066L229.156 289.721C229.798 291.07 230.469 292.535 231.153 294.143H231.61C231.453 292.348 231.381 290.841 231.381 289.606V271.516H236.288Z" fill="#D49961"/>
<path d="M283.233 271.516H288.14C289.053 271.516 289.637 271.961 289.908 272.837L298.296 299.484H293.104L290.821 291.559H280.494L278.211 299.484H273.076L281.35 272.837C281.692 271.961 282.32 271.516 283.233 271.516ZM285.115 275.363L284.488 277.718L281.692 287.424H289.623L286.827 277.718C286.485 276.498 286.271 275.708 286.2 275.363H285.115Z" fill="#D49961"/>
<path d="M324.941 271.113C328.593 271.113 331.075 271.745 332.416 273.008C333.785 274.272 334.47 276.655 334.47 280.13C334.47 283.619 333.814 285.988 332.53 287.251C331.232 288.514 328.907 289.146 325.569 289.146C323.543 289.146 321.66 289.031 319.92 288.802V299.484H314.842V271.515C317.381 271.257 320.747 271.113 324.941 271.113ZM319.92 275.306V285.011H324.827C326.61 285.011 327.808 284.695 328.422 284.035C329.064 283.346 329.392 282.068 329.392 280.187C329.392 278.278 329.064 277 328.422 276.339C327.808 275.65 326.61 275.306 324.827 275.306H319.92Z" fill="#D49961"/>
<path d="M362.47 271.113C366.122 271.113 368.604 271.745 369.945 273.008C371.314 274.272 371.999 276.655 371.999 280.13C371.999 283.619 371.343 285.988 370.059 287.251C368.761 288.514 366.436 289.146 363.098 289.146C361.072 289.146 359.19 289.031 357.449 288.802V299.484H352.371V271.515C354.91 271.257 358.277 271.113 362.47 271.113ZM357.449 275.306V285.011H362.356C364.139 285.011 365.338 284.695 365.951 284.035C366.593 283.346 366.921 282.068 366.921 280.187C366.921 278.278 366.593 277 365.951 276.339C365.338 275.65 364.139 275.306 362.356 275.306H357.449Z" fill="#D49961"/>
<path d="M217.692 21.4356L325.632 130.05V253.279H340.681V123.79L300.37 83.1869L287.574 70.2609L277.546 60.2438L217.692 0L83.6762 134.888H104.987L217.692 21.4356ZM304.535 246.216V138.865L217.692 51.457L134.786 134.888H124.844L217.692 41.4355L311.567 135.936V253.308H0V246.216L304.535 246.23V246.216Z" fill="#AF5500"/>
<mask id="mask0_7_9233" style="mask-type:luminance" maskUnits="userSpaceOnUse" x="100" y="102" width="187" height="170">
<path d="M286.571 102.225H100.332V271.298H286.571V102.225Z" fill="white"/>
</mask>
<g mask="url(#mask0_7_9233)">
<path d="M129.768 160.141C131.138 160.255 132.236 160.571 133.077 161.06C134.105 161.749 134.932 162.596 135.588 163.586C136.116 164.706 136.401 165.884 136.444 167.147C136.401 168.411 136.116 169.588 135.588 170.65C134.975 171.727 134.133 172.603 133.077 173.292C132.165 173.909 131.052 174.211 129.768 174.211C128.427 174.211 127.286 173.909 126.345 173.292C125.318 172.603 124.476 171.727 123.834 170.65C123.292 169.617 122.992 168.454 122.921 167.147C122.992 165.697 123.292 164.505 123.834 163.586C124.362 162.639 125.203 161.792 126.345 161.06C127.286 160.571 128.427 160.255 129.768 160.141ZM153.39 175.876V203.443C153.39 210.794 150.965 216.479 146.144 220.499C141.807 224.132 136.444 225.84 130.053 225.611C123.806 225.381 118.442 223.371 113.963 219.58C108.97 215.288 106.488 209.918 106.488 203.443V183.457H118.927V205.453C118.927 208.439 120.082 210.966 122.408 213.033C124.576 214.9 127.101 215.905 129.996 216.02C132.806 216.206 135.317 215.331 137.528 213.378C139.81 211.196 140.952 208.008 140.952 203.787V175.876H153.39Z" fill="#AF5500"/>
<path d="M171.578 144.289V189.371C171.578 196.608 174.83 200.226 181.335 200.226H184.017V210.85H179.68C172.263 210.85 167.142 209.472 164.331 206.715C160.822 203.427 159.082 196.995 159.082 187.419V144.289H171.578Z" fill="#AF5500"/>
<path d="M215.289 175.703V181.848C215.289 182.164 215.26 182.982 215.232 184.318C215.189 185.667 215.175 186.873 215.175 187.936V192.76C215.175 195.215 215.432 196.923 215.974 197.871C216.459 198.948 217.4 199.623 218.769 199.881C220.053 200.111 221.052 200.226 221.736 200.226H227.214V210.85C217.814 210.85 211.751 210.075 209.012 208.495C207.829 209.185 204.277 209.759 198.343 210.218C192.437 210.649 186.717 210.85 181.168 210.85V200.226H196.346C197.102 200.226 198.086 200.111 199.313 199.881C200.682 199.623 201.609 198.948 202.108 197.871C202.593 196.923 202.85 195.215 202.85 192.76V175.703H215.289ZM198.856 218.661C200.183 218.732 201.31 219.077 202.223 219.694C203.25 220.226 204.048 221.03 204.619 222.106C205.19 223.284 205.489 224.461 205.532 225.61C205.489 226.83 205.19 228.036 204.619 229.228C204.12 230.146 203.321 230.965 202.223 231.697C201.195 232.386 200.069 232.745 198.856 232.788C197.558 232.673 196.403 232.3 195.376 231.697C194.377 231.123 193.578 230.29 192.979 229.228C192.366 228.194 192.066 226.988 192.066 225.61C192.066 224.346 192.366 223.169 192.979 222.106C193.578 221.03 194.377 220.226 195.376 219.694C196.403 219.077 197.558 218.732 198.856 218.661ZM215.974 218.661C217.3 218.732 218.427 219.077 219.34 219.694C220.367 220.226 221.166 221.03 221.736 222.106C222.307 223.284 222.607 224.461 222.649 225.61C222.607 226.83 222.307 228.036 221.736 229.228C221.237 230.146 220.438 230.965 219.34 231.697C218.313 232.386 217.186 232.745 215.974 232.788C214.676 232.673 213.52 232.3 212.493 231.697C211.537 231.123 210.738 230.29 210.097 229.228C209.483 228.194 209.184 226.988 209.184 225.61C209.184 224.346 209.483 223.169 210.097 222.106C210.781 221.03 211.58 220.226 212.493 219.694C213.52 219.077 214.676 218.732 215.974 218.661Z" fill="#AF5500"/>
<path d="M242.405 153.596C243.775 153.682 244.887 154.041 245.772 154.687C246.799 155.189 247.598 155.979 248.168 157.041C248.739 158.233 249.038 159.425 249.081 160.602C249.038 161.794 248.739 162.985 248.168 164.163C247.669 165.082 246.87 165.914 245.772 166.632C244.745 167.321 243.618 167.695 242.405 167.723C241.107 167.609 239.952 167.25 238.925 166.632C237.969 166.058 237.17 165.254 236.528 164.22C235.915 163.158 235.616 161.952 235.616 160.602C235.616 159.31 235.915 158.118 236.528 157.041C237.213 155.979 238.012 155.189 238.925 154.687C239.952 154.041 241.107 153.682 242.405 153.596ZM248.796 175.706V181.851C248.796 182.167 248.767 182.985 248.739 184.321C248.739 185.67 248.739 186.876 248.739 187.939V192.763C248.739 195.218 248.996 196.926 249.538 197.874C249.994 198.951 250.921 199.626 252.334 199.884C253.66 200.114 254.63 200.229 255.244 200.229H260.778V210.853C251.335 210.853 245.273 210.078 242.577 208.499C239.909 210.078 233.847 210.853 224.375 210.853V200.229H229.91C230.666 200.229 231.636 200.114 232.82 199.884C234.218 199.626 235.159 198.951 235.616 197.874C236.143 196.926 236.414 195.218 236.414 192.763V175.706H248.796Z" fill="#AF5500"/>
<mask id="mask1_7_9233" style="mask-type:luminance" maskUnits="userSpaceOnUse" x="257" y="142" width="29" height="27">
<path d="M257.357 142.652H285.402V168.381H257.357V142.652Z" fill="white"/>
</mask>
<g mask="url(#mask1_7_9233)">
<path d="M275.96 146.79C277.857 147.25 279.269 148.283 280.182 149.891L283.548 155.807L269.911 163.675C266.83 165.512 264.034 165.311 261.524 163.1C260.953 162.684 260.482 162.153 260.097 161.492C259.798 160.918 259.241 159.856 258.443 158.276L258.271 157.645L260.668 156.209L261.41 157.645C261.752 158.492 262.251 159.238 262.893 159.884C264.377 161.377 266.017 161.593 267.8 160.516L269.512 159.482L267.287 155.692C266.374 152.131 267.444 149.461 270.482 147.652C272.265 146.661 274.091 146.374 275.96 146.79ZM272.365 150.466C270.168 151.772 269.655 153.423 270.824 155.405L272.536 158.334L275.503 156.553H275.617L275.788 156.381C275.86 156.381 275.917 156.367 275.96 156.324L279.041 154.543L278.014 152.878L277.329 151.557C276.216 149.604 274.562 149.245 272.365 150.466Z" fill="#AF5500"/>
</g>
<path d="M282.272 175.703V194.77C282.272 202.049 279.876 206.758 275.083 208.898C272.258 210.204 266.538 210.85 257.908 210.85V200.226C261.061 200.226 263.158 200.197 264.185 200.111C267.266 199.967 269.063 198.819 269.605 196.665C269.833 195.559 269.948 190.62 269.948 181.848V175.703H282.272ZM271.83 218.661C273.157 218.732 274.284 219.077 275.197 219.694C276.181 220.226 276.966 221.03 277.536 222.106C278.107 223.284 278.406 224.461 278.449 225.61C278.406 226.83 278.107 228.036 277.536 229.228C277.037 230.146 276.252 230.965 275.197 231.697C274.127 232.386 273 232.745 271.83 232.788C270.532 232.673 269.348 232.3 268.293 231.697C267.337 231.123 266.538 230.29 265.896 229.228C265.283 228.194 264.983 226.988 264.983 225.61C264.983 224.346 265.297 223.169 265.953 222.106C266.595 221.03 267.38 220.226 268.293 219.694C269.348 219.077 270.532 218.732 271.83 218.661Z" fill="#AF5500"/>
</svg>
