<svg width="23" height="23" viewBox="0 0 23 23" fill="none" xmlns="http://www.w3.org/2000/svg">
<mask id="mask0_433_772" style="mask-type:luminance" maskUnits="userSpaceOnUse" x="0" y="0" width="23" height="23">
<path fill-rule="evenodd" clip-rule="evenodd" d="M0 0H22.493V23H0V0Z" fill="white"/>
</mask>
<g mask="url(#mask0_433_772)">
<path fill-rule="evenodd" clip-rule="evenodd" d="M5.34604 19.9837C5.95303 19.9837 6.52548 20.2191 7.13142 20.4684C10.8434 22.2233 15.2336 21.4251 18.0938 18.5016C21.8676 14.6408 21.8676 8.3605 18.0938 4.50181C16.2666 2.63346 13.8365 1.60511 11.2495 1.60511C8.66144 1.60511 6.23036 2.63453 4.40417 4.50288C1.54297 7.42633 0.76435 11.9153 2.46496 15.6745C2.70984 16.294 2.94636 16.8976 2.94636 17.5246C2.94636 18.1506 2.73601 18.7809 2.55077 19.3373C2.39798 19.7953 2.1667 20.4866 2.3153 20.6386C2.46077 20.7927 3.14101 20.5497 3.58997 20.3924C4.12893 20.2041 4.7401 19.988 5.34604 19.9837ZM11.2234 23.0002C9.62432 23.0002 8.01476 22.6546 6.50881 21.9419C6.06508 21.76 5.64961 21.5888 5.35135 21.5888C5.00809 21.5909 4.54657 21.7536 4.10075 21.9109C3.18609 22.2319 2.04746 22.6321 1.20501 21.7739C0.365695 20.9146 0.75291 19.7536 1.06478 18.8194C1.21861 18.3593 1.37664 17.8842 1.37664 17.5246C1.37664 17.2293 1.23745 16.8526 1.02396 16.3101C-0.936184 11.9816 -0.0298917 6.76502 3.29492 3.36753C5.41728 1.19634 8.24186 0 11.2485 0C14.2552 0 17.0808 1.19527 19.2032 3.36646C23.5902 7.85222 23.5902 15.1501 19.2032 19.6359C17.0526 21.836 14.1568 23.0002 11.2234 23.0002Z" fill="#9E9E9E"/>
</g>
<path fill-rule="evenodd" clip-rule="evenodd" d="M15.3808 13.0152C14.8031 13.0152 14.3301 12.5368 14.3301 11.9451C14.3301 11.3533 14.7937 10.875 15.3714 10.875H15.3808C15.9585 10.875 16.4273 11.3533 16.4273 11.9451C16.4273 12.5368 15.9585 13.0152 15.3808 13.0152Z" fill="#9E9E9E"/>
<path fill-rule="evenodd" clip-rule="evenodd" d="M11.1855 13.0152C10.6078 13.0152 10.1348 12.5368 10.1348 11.9451C10.1348 11.3533 10.5973 10.875 11.1761 10.875H11.1855C11.7632 10.875 12.232 11.3533 12.232 11.9451C12.232 12.5368 11.7632 13.0152 11.1855 13.0152Z" fill="#9E9E9E"/>
<path fill-rule="evenodd" clip-rule="evenodd" d="M6.98821 13.0152C6.41053 13.0152 5.9375 12.5368 5.9375 11.9451C5.9375 11.3533 6.40111 10.875 6.97879 10.875H6.98821C7.5659 10.875 8.03474 11.3533 8.03474 11.9451C8.03474 12.5368 7.5659 13.0152 6.98821 13.0152Z" fill="#9E9E9E"/>
</svg>
