<svg width="170" height="135" viewBox="0 0 170 135" fill="none" xmlns="http://www.w3.org/2000/svg">
<path d="M12.1324 122.025C13.7464 122.025 14.8658 122.258 15.4905 122.723C16.1283 123.188 16.4537 124.054 16.4537 125.307C16.4537 126.225 16.278 126.923 15.9331 127.401C15.6012 127.866 15.0545 128.137 14.2931 128.202V128.279C15.2107 128.351 15.8615 128.667 16.2455 129.236C16.6425 129.791 16.8442 130.592 16.8442 131.639C16.8442 132.899 16.5318 133.758 15.9071 134.223C15.2823 134.689 14.215 134.921 12.7051 134.921C10.5705 134.921 8.87844 134.869 7.62891 134.766V122.18C8.63113 122.077 10.1345 122.025 12.1324 122.025ZM9.89368 123.886V127.401H12.2105C12.9915 127.401 13.5186 127.284 13.7985 127.039C14.0913 126.8 14.241 126.328 14.241 125.618C14.241 124.933 14.0848 124.474 13.7724 124.248C13.4601 124.009 12.8678 123.886 12.0023 123.886H9.89368ZM9.89368 129.081V133.035L12.3147 133.086C13.1802 133.086 13.7724 132.957 14.0848 132.699C14.3972 132.44 14.5534 131.943 14.5534 131.2C14.5534 130.373 14.3842 129.817 14.0588 129.52C13.7269 129.229 13.1216 129.081 12.2366 129.081H9.89368Z" fill="#D49961"/>
<path d="M34.8499 122.182V129.831C34.8499 131.731 34.4919 133.062 33.7826 133.837C33.0667 134.612 31.8432 135 30.1121 135C28.3029 135 27.0273 134.612 26.2854 133.837C25.537 133.049 25.166 131.711 25.166 129.831V122.182H27.4568V129.831C27.4568 131.059 27.639 131.899 28.0035 132.364C28.381 132.816 29.0513 133.036 30.008 133.036C30.9451 133.036 31.5959 132.816 31.9603 132.364C32.3378 131.899 32.533 131.059 32.533 129.831V122.182H34.8499Z" fill="#D49961"/>
<path d="M53.9532 122.182V133.914C53.9532 134.483 53.6733 134.767 53.1201 134.767H51.2979C51.0506 134.767 50.8619 134.716 50.7252 134.612C50.582 134.496 50.4649 134.315 50.3608 134.07L46.7684 126.368C46.3323 125.386 46.0785 124.76 46.0134 124.482H45.8052C45.8703 124.966 45.9093 125.593 45.9093 126.368V134.767H43.6445V123.009C43.6445 122.459 43.9374 122.182 44.5296 122.182H46.2998C46.5406 122.182 46.7293 122.233 46.8725 122.337C47.0092 122.44 47.1393 122.621 47.263 122.879L50.6992 130.374C50.992 130.981 51.2979 131.64 51.6103 132.364H51.8186C51.747 131.556 51.7144 130.878 51.7144 130.322V122.182H53.9532Z" fill="#D49961"/>
<path d="M68.0067 130.503V134.767H65.7159V130.477L61.5508 122.182H63.9717L66.2886 127.066C66.3537 127.208 66.5229 127.712 66.7832 128.591H66.9394C67.1476 127.867 67.3169 127.363 67.46 127.066L69.7769 122.182H72.1458L68.0067 130.503Z" fill="#D49961"/>
<path d="M83.0731 122.182H85.3119C85.7284 122.182 85.9952 122.382 86.1189 122.776L89.9456 134.767H87.5767L86.5354 131.201H81.8236L80.7823 134.767H78.4395L82.2141 122.776C82.3703 122.382 82.6566 122.182 83.0731 122.182ZM83.9322 123.913L83.6458 124.973L82.3703 129.34H85.9887L84.7131 124.973C84.557 124.424 84.4593 124.068 84.4268 123.913H83.9322Z" fill="#D49961"/>
<path d="M107.803 122.182V133.914C107.803 134.483 107.523 134.767 106.97 134.767H105.148C104.9 134.767 104.711 134.716 104.575 134.612C104.432 134.496 104.315 134.315 104.21 134.07L100.618 126.368C100.182 125.386 99.9281 124.76 99.863 124.482H99.6548C99.7199 124.966 99.7589 125.593 99.7589 126.368V134.767H97.4941V123.009C97.4941 122.459 97.787 122.182 98.3792 122.182H100.149C100.39 122.182 100.579 122.233 100.722 122.337C100.859 122.44 100.989 122.621 101.113 122.879L104.549 130.374C104.842 130.981 105.148 131.64 105.46 132.364H105.668C105.597 131.556 105.564 130.878 105.564 130.322V122.182H107.803Z" fill="#D49961"/>
<path d="M129.22 122.182H131.458C131.875 122.182 132.142 122.382 132.265 122.776L136.092 134.767H133.723L132.682 131.201H127.97L126.929 134.767H124.586L128.361 122.776C128.517 122.382 128.803 122.182 129.22 122.182ZM130.079 123.913L129.792 124.973L128.517 129.34H132.135L130.86 124.973C130.703 124.424 130.606 124.068 130.573 123.913H130.079Z" fill="#D49961"/>
<path d="M148.248 122C149.914 122 151.047 122.284 151.658 122.853C152.283 123.421 152.596 124.494 152.596 126.057C152.596 127.627 152.296 128.693 151.711 129.262C151.118 129.831 150.057 130.115 148.535 130.115C147.61 130.115 146.751 130.063 145.957 129.96V134.767H143.641V122.181C144.799 122.065 146.335 122 148.248 122ZM145.957 123.887V128.254H148.196C149.01 128.254 149.556 128.112 149.836 127.815C150.129 127.505 150.279 126.93 150.279 126.083C150.279 125.224 150.129 124.649 149.836 124.352C149.556 124.042 149.01 123.887 148.196 123.887H145.957Z" fill="#D49961"/>
<path d="M165.371 122C167.037 122 168.17 122.284 168.781 122.853C169.406 123.421 169.719 124.494 169.719 126.057C169.719 127.627 169.419 128.693 168.834 129.262C168.241 129.831 167.181 130.115 165.658 130.115C164.734 130.115 163.874 130.063 163.081 129.96V134.767H160.764V122.181C161.922 122.065 163.458 122 165.371 122ZM163.081 123.887V128.254H165.319C166.133 128.254 166.679 128.112 166.959 127.815C167.252 127.505 167.402 126.93 167.402 126.083C167.402 125.224 167.252 124.649 166.959 124.352C166.679 124.042 166.133 123.887 165.319 123.887H163.081Z" fill="#D49961"/>
<path d="M99.3182 9.646L148.564 58.5221V113.975H155.43V55.7052L137.038 37.434L131.201 31.6173L126.626 27.1096L99.3182 0L38.1758 60.6994H47.8987L99.3182 9.646ZM138.939 110.797V62.489L99.3182 23.1556L61.4939 60.6994H56.9578L99.3182 18.6459L142.147 61.171V113.988H0V110.797L138.939 110.803V110.797Z" fill="#AF5500"/>
<mask id="mask0_7_2144" style="mask-type:luminance" maskUnits="userSpaceOnUse" x="45" y="46" width="86" height="77">
<path d="M130.744 46H45.7754V122.083H130.744V46Z" fill="white"/>
</mask>
<g mask="url(#mask0_7_2144)">
<path d="M59.205 72.0625C59.8298 72.1142 60.3309 72.2563 60.7149 72.476C61.1834 72.7861 61.5609 73.1673 61.8603 73.6131C62.1011 74.117 62.2312 74.6468 62.2507 75.2154C62.2312 75.7839 62.1011 76.3137 61.8603 76.7918C61.5804 77.2764 61.1964 77.6705 60.7149 77.9806C60.2983 78.2584 59.7907 78.3941 59.205 78.3941C58.5933 78.3941 58.0726 78.2584 57.6431 77.9806C57.1745 77.6705 56.7905 77.2764 56.4977 76.7918C56.2504 76.3266 56.1137 75.8033 56.0812 75.2154C56.1137 74.5628 56.2504 74.0266 56.4977 73.6131C56.7385 73.1867 57.1225 72.8055 57.6431 72.476C58.0726 72.2563 58.5933 72.1142 59.205 72.0625ZM69.9822 79.1436V91.5483C69.9822 94.8563 68.8759 97.4147 66.6762 99.2238C64.6977 100.858 62.2507 101.627 59.3352 101.524C56.4847 101.42 54.0377 100.516 51.9942 98.8103C49.7164 96.8785 48.584 94.4622 48.584 91.5483V82.5549H54.2589V92.4528C54.2589 93.7967 54.7861 94.9338 55.8469 95.8642C56.8361 96.7041 57.988 97.1563 59.3091 97.208C60.5912 97.292 61.7366 96.8979 62.7453 96.0192C63.7866 95.0372 64.3073 93.6029 64.3073 91.7034V79.1436H69.9822Z" fill="#AF5500"/>
<path d="M78.2791 64.9297V85.2167C78.2791 88.4729 79.7629 90.101 82.7306 90.101H83.9541V94.882H81.9756C78.5915 94.882 76.2551 94.2618 74.9731 93.0213C73.3721 91.5418 72.5781 88.6474 72.5781 84.338V64.9297H78.2791Z" fill="#AF5500"/>
<path d="M98.2214 79.0664V81.8316C98.2214 81.9738 98.2084 82.342 98.1953 82.9429C98.1758 83.5502 98.1693 84.0929 98.1693 84.571V86.7419C98.1693 87.8467 98.2865 88.6155 98.5338 89.0419C98.755 89.5265 99.1846 89.8301 99.8093 89.9464C100.395 90.0498 100.851 90.1015 101.163 90.1015H103.662V94.8825C99.3733 94.8825 96.6074 94.5336 95.3579 93.8229C94.8177 94.133 93.1972 94.3915 90.4899 94.5982C87.7956 94.792 85.1859 94.8825 82.6543 94.8825V90.1015H89.5788C89.9237 90.1015 90.3728 90.0498 90.9324 89.9464C91.5572 89.8301 91.9802 89.5265 92.208 89.0419C92.4293 88.6155 92.5464 87.8467 92.5464 86.7419V79.0664H98.2214ZM90.7242 98.3972C91.3294 98.4295 91.8436 98.5845 92.2601 98.8624C92.7286 99.1014 93.0931 99.4632 93.3534 99.9478C93.6137 100.478 93.7504 101.007 93.7699 101.524C93.7504 102.073 93.6137 102.616 93.3534 103.152C93.1256 103.566 92.7612 103.934 92.2601 104.264C91.7915 104.574 91.2774 104.735 90.7242 104.755C90.132 104.703 89.6048 104.535 89.1362 104.264C88.6807 104.005 88.3162 103.63 88.0429 103.152C87.7631 102.687 87.6264 102.144 87.6264 101.524C87.6264 100.956 87.7631 100.426 88.0429 99.9478C88.3162 99.4632 88.6807 99.1014 89.1362 98.8624C89.6048 98.5845 90.132 98.4295 90.7242 98.3972ZM98.5338 98.3972C99.139 98.4295 99.6531 98.5845 100.07 98.8624C100.538 99.1014 100.903 99.4632 101.163 99.9478C101.423 100.478 101.56 101.007 101.579 101.524C101.56 102.073 101.423 102.616 101.163 103.152C100.935 103.566 100.571 103.934 100.07 104.264C99.6011 104.574 99.0869 104.735 98.5338 104.755C97.9415 104.703 97.4144 104.535 96.9458 104.264C96.5098 104.005 96.1453 103.63 95.8525 103.152C95.5726 102.687 95.436 102.144 95.436 101.524C95.436 100.956 95.5726 100.426 95.8525 99.9478C96.1649 99.4632 96.5293 99.1014 96.9458 98.8624C97.4144 98.5845 97.9415 98.4295 98.5338 98.3972Z" fill="#AF5500"/>
<path d="M110.593 69.1172C111.218 69.156 111.726 69.3175 112.129 69.6082C112.598 69.8343 112.962 70.1897 113.222 70.6678C113.483 71.204 113.619 71.7403 113.639 72.2701C113.619 72.8063 113.483 73.3426 113.222 73.8723C112.995 74.2858 112.63 74.6606 112.129 74.9836C111.661 75.2937 111.146 75.4617 110.593 75.4746C110.001 75.4229 109.474 75.2614 109.005 74.9836C108.569 74.7252 108.205 74.3634 107.912 73.8982C107.632 73.4201 107.495 72.8774 107.495 72.2701C107.495 71.6886 107.632 71.1523 107.912 70.6678C108.224 70.1897 108.589 69.8343 109.005 69.6082C109.474 69.3175 110.001 69.156 110.593 69.1172ZM113.509 79.0668V81.8321C113.509 81.9742 113.496 82.3425 113.483 82.9433C113.483 83.5507 113.483 84.0934 113.483 84.5715V86.7423C113.483 87.8471 113.6 88.6159 113.847 89.0424C114.056 89.5269 114.479 89.8306 115.123 89.9469C115.728 90.0502 116.171 90.1019 116.45 90.1019H118.976V94.8829C114.667 94.8829 111.901 94.534 110.671 93.8234C109.454 94.534 106.688 94.8829 102.367 94.8829V90.1019H104.892C105.237 90.1019 105.68 90.0502 106.22 89.9469C106.858 89.8306 107.287 89.5269 107.495 89.0424C107.736 88.6159 107.86 87.8471 107.86 86.7423V79.0668H113.509Z" fill="#AF5500"/>
<mask id="mask1_7_2144" style="mask-type:luminance" maskUnits="userSpaceOnUse" x="117" y="64" width="14" height="12">
<path d="M117.414 64.1934H130.209V75.7711H117.414V64.1934Z" fill="white"/>
</mask>
<g mask="url(#mask1_7_2144)">
<path d="M125.902 66.0558C126.767 66.2626 127.412 66.7277 127.828 67.4514L129.364 70.1132L123.143 73.6537C121.737 74.4807 120.461 74.3903 119.316 73.3953C119.056 73.2079 118.841 72.9689 118.665 72.6717C118.528 72.4133 118.275 71.9352 117.91 71.2245L117.832 70.9402L118.925 70.2941L119.264 70.9402C119.42 71.3214 119.648 71.6574 119.941 71.9481C120.617 72.62 121.366 72.7169 122.179 72.2324L122.96 71.7672L121.945 70.0615C121.529 68.4592 122.017 67.2575 123.403 66.4435C124.216 65.9977 125.049 65.8685 125.902 66.0558ZM124.262 67.7098C123.26 68.2977 123.025 69.0407 123.559 69.9323L124.34 71.2503L125.694 70.4492H125.746L125.824 70.3716C125.856 70.3716 125.882 70.3652 125.902 70.3458L127.308 69.5447L126.839 68.7952L126.527 68.2008C126.019 67.3221 125.264 67.1606 124.262 67.7098Z" fill="#AF5500"/>
</g>
<path d="M128.782 79.0664V87.6464C128.782 90.922 127.688 93.0412 125.502 94.0038C124.213 94.5918 121.603 94.8825 117.666 94.8825V90.1015C119.104 90.1015 120.061 90.0886 120.53 90.0498C121.935 89.9852 122.755 89.4683 123.003 88.4992C123.107 88.0017 123.159 85.7792 123.159 81.8316V79.0664H128.782ZM124.018 98.3972C124.623 98.4295 125.137 98.5845 125.554 98.8624C126.003 99.1014 126.361 99.4632 126.621 99.9478C126.881 100.478 127.018 101.007 127.038 101.524C127.018 102.073 126.881 102.616 126.621 103.152C126.393 103.566 126.035 103.934 125.554 104.264C125.066 104.574 124.551 104.735 124.018 104.755C123.426 104.703 122.885 104.535 122.404 104.264C121.968 104.005 121.603 103.63 121.31 103.152C121.031 102.687 120.894 102.144 120.894 101.524C120.894 100.956 121.037 100.426 121.337 99.9478C121.629 99.4632 121.987 99.1014 122.404 98.8624C122.885 98.5845 123.426 98.4295 124.018 98.3972Z" fill="#AF5500"/>
</g>
</svg>
