<svg width="16" height="16" viewBox="0 0 16 16" fill="none" xmlns="http://www.w3.org/2000/svg">
<g clip-path="url(#clip0_7_9577)">
<path d="M7.68265 1.53056C7.71187 1.47154 7.75699 1.42186 7.81294 1.38713C7.86889 1.35239 7.93344 1.33398 7.99929 1.33398C8.06515 1.33398 8.12969 1.35239 8.18564 1.38713C8.24159 1.42186 8.28672 1.47154 8.31593 1.53056L9.85579 4.64961C9.95723 4.8549 10.107 5.03252 10.2922 5.1672C10.4774 5.30188 10.6925 5.38962 10.919 5.42287L14.3627 5.92683C14.428 5.93628 14.4893 5.96381 14.5397 6.00629C14.5901 6.04877 14.6276 6.10451 14.648 6.16721C14.6684 6.22991 14.6709 6.29707 14.6551 6.36108C14.6393 6.42509 14.6059 6.48341 14.5587 6.52944L12.0683 8.95455C11.904 9.11461 11.7811 9.31217 11.7102 9.53025C11.6392 9.74833 11.6223 9.98039 11.661 10.2064L12.2489 13.6328C12.2604 13.698 12.2534 13.7652 12.2286 13.8266C12.2038 13.888 12.1622 13.9412 12.1086 13.9801C12.055 14.019 11.9916 14.0421 11.9255 14.0467C11.8594 14.0513 11.7934 14.0372 11.735 14.0061L8.65656 12.3876C8.45373 12.2811 8.22806 12.2254 7.99896 12.2254C7.76986 12.2254 7.54419 12.2811 7.34135 12.3876L4.26363 14.0061C4.20519 14.037 4.13924 14.0509 4.07328 14.0463C4.00732 14.0416 3.94401 14.0185 3.89053 13.9796C3.83705 13.9407 3.79556 13.8876 3.77078 13.8263C3.746 13.765 3.73892 13.6979 3.75034 13.6328L4.33762 10.2071C4.37642 9.98095 4.35961 9.74875 4.28865 9.53053C4.2177 9.31232 4.09472 9.11464 3.93033 8.95455L1.43989 6.53011C1.39229 6.48413 1.35856 6.42571 1.34254 6.36151C1.32652 6.2973 1.32886 6.22988 1.34928 6.16693C1.36971 6.10399 1.4074 6.04805 1.45807 6.00548C1.50874 5.96291 1.57034 5.93543 1.63587 5.92616L5.07889 5.42287C5.30571 5.38988 5.52111 5.30226 5.70656 5.16756C5.892 5.03285 6.04194 4.85511 6.14346 4.64961L7.68265 1.53056Z" fill="#E4A853" stroke="#E4A853" stroke-width="1.33321" stroke-linecap="round" stroke-linejoin="round"/>
</g>
<defs>
<clipPath id="clip0_7_9577">
<rect width="15.9985" height="15.9985" fill="white"/>
</clipPath>
</defs>
</svg>
