<svg width="18" height="18" viewBox="0 0 18 18" fill="none" xmlns="http://www.w3.org/2000/svg">
<path d="M8.24876 16.2949C8.47674 16.4265 8.73536 16.4958 8.99861 16.4958C9.26186 16.4958 9.52047 16.4265 9.74845 16.2949L14.9974 13.2955C15.2251 13.164 15.4143 12.9749 15.5459 12.7472C15.6775 12.5195 15.7469 12.2612 15.7472 11.9983V5.99949C15.7469 5.7365 15.6775 5.4782 15.5459 5.25051C15.4143 5.02283 15.2251 4.83375 14.9974 4.70225L9.74845 1.70287C9.52047 1.57125 9.26186 1.50195 8.99861 1.50195C8.73536 1.50195 8.47674 1.57125 8.24876 1.70287L2.99985 4.70225C2.77209 4.83375 2.58292 5.02283 2.4513 5.25051C2.31969 5.4782 2.25027 5.7365 2.25 5.99949V11.9983C2.25027 12.2612 2.31969 12.5195 2.4513 12.7472C2.58292 12.9749 2.77209 13.164 2.99985 13.2955L8.24876 16.2949Z" stroke="#AF5500" stroke-width="1.49969" stroke-linecap="round" stroke-linejoin="round"/>
<path d="M9 16.4965V8.99805" stroke="#AF5500" stroke-width="1.49969" stroke-linecap="round" stroke-linejoin="round"/>
<path d="M2.46875 5.24805L8.9999 8.99727L15.5311 5.24805" stroke="#AF5500" stroke-width="1.49969" stroke-linecap="round" stroke-linejoin="round"/>
<path d="M5.625 3.20117L12.3736 7.06288" stroke="#AF5500" stroke-width="1.49969" stroke-linecap="round" stroke-linejoin="round"/>
</svg>
