<svg width="20" height="20" viewBox="0 0 20 20" fill="none" xmlns="http://www.w3.org/2000/svg">
<g clip-path="url(#clip0_7_9585)">
<path d="M2.49218 13.6139C2.61467 13.9229 2.64195 14.2614 2.57049 14.5861L1.68325 17.3269C1.65467 17.4659 1.66206 17.6099 1.70473 17.7453C1.7474 17.8806 1.82393 18.0028 1.92707 18.1003C2.03021 18.1977 2.15654 18.2672 2.29407 18.3022C2.4316 18.3371 2.57579 18.3364 2.71295 18.3L5.55626 17.4685C5.8626 17.4078 6.17985 17.4343 6.47182 17.5452C8.25078 18.376 10.266 18.5517 12.1619 18.0415C14.0578 17.5312 15.7126 16.3677 16.8343 14.7563C17.956 13.1449 18.4725 11.1891 18.2927 9.23396C18.1129 7.27883 17.2484 5.45002 15.8516 4.07021C14.4548 2.69039 12.6156 1.84824 10.6584 1.69233C8.70121 1.53643 6.75185 2.07679 5.15425 3.21808C3.55665 4.35937 2.41348 6.02824 1.92642 7.93026C1.43937 9.83227 1.63974 11.8452 2.49218 13.6139Z" stroke="#AF5500" stroke-width="1.66617" stroke-linecap="round" stroke-linejoin="round"/>
</g>
<defs>
<clipPath id="clip0_7_9585">
<rect width="19.994" height="19.994" fill="white"/>
</clipPath>
</defs>
</svg>
