<svg width="28" height="28" viewBox="0 0 28 28" fill="none" xmlns="http://www.w3.org/2000/svg">
<path d="M13.9959 25.6598C10.9025 25.6598 7.9357 24.4309 5.7483 22.2435C3.5609 20.0561 2.33203 17.0894 2.33203 13.9959C2.33203 10.9025 3.5609 7.9357 5.7483 5.7483C7.9357 3.5609 10.9025 2.33203 13.9959 2.33203C17.0894 2.33203 20.0561 3.43801 22.2435 5.40667C24.4309 7.37534 25.6598 10.0454 25.6598 12.8295C25.6598 14.3762 25.0454 15.8596 23.9517 16.9533C22.858 18.047 21.3746 18.6615 19.8278 18.6615H17.2035C16.8244 18.6615 16.4528 18.767 16.1304 18.9663C15.8079 19.1656 15.5473 19.4507 15.3778 19.7898C15.2083 20.1288 15.1365 20.5084 15.1705 20.8859C15.2046 21.2635 15.3431 21.6241 15.5705 21.9273L15.9204 22.3939C16.1479 22.6972 16.2864 23.0578 16.3204 23.4353C16.3545 23.8128 16.2827 24.1924 16.1132 24.5315C15.9437 24.8705 15.6831 25.1557 15.3606 25.3549C15.0382 25.5542 14.6666 25.6598 14.2875 25.6598H13.9959Z" stroke="#F59E0B" stroke-width="2.33278" stroke-linecap="round" stroke-linejoin="round"/>
<path d="M15.7453 8.16443C16.0674 8.16443 16.3285 7.90333 16.3285 7.58124C16.3285 7.25915 16.0674 6.99805 15.7453 6.99805C15.4232 6.99805 15.1621 7.25915 15.1621 7.58124C15.1621 7.90333 15.4232 8.16443 15.7453 8.16443Z" fill="#F59E0B" stroke="#F59E0B" stroke-width="2.33278" stroke-linecap="round" stroke-linejoin="round"/>
<path d="M20.4113 12.8305C20.7334 12.8305 20.9945 12.5693 20.9945 12.2473C20.9945 11.9252 20.7334 11.6641 20.4113 11.6641C20.0892 11.6641 19.8281 11.9252 19.8281 12.2473C19.8281 12.5693 20.0892 12.8305 20.4113 12.8305Z" fill="#F59E0B" stroke="#F59E0B" stroke-width="2.33278" stroke-linecap="round" stroke-linejoin="round"/>
<path d="M7.58124 15.1625C7.90333 15.1625 8.16443 14.9014 8.16443 14.5793C8.16443 14.2572 7.90333 13.9961 7.58124 13.9961C7.25915 13.9961 6.99805 14.2572 6.99805 14.5793C6.99805 14.9014 7.25915 15.1625 7.58124 15.1625Z" fill="#F59E0B" stroke="#F59E0B" stroke-width="2.33278" stroke-linecap="round" stroke-linejoin="round"/>
<path d="M9.91523 9.33045C10.2373 9.33045 10.4984 9.06935 10.4984 8.74726C10.4984 8.42517 10.2373 8.16406 9.91523 8.16406C9.59314 8.16406 9.33203 8.42517 9.33203 8.74726C9.33203 9.06935 9.59314 9.33045 9.91523 9.33045Z" fill="#F59E0B" stroke="#F59E0B" stroke-width="2.33278" stroke-linecap="round" stroke-linejoin="round"/>
</svg>
