<svg width="20" height="20" viewBox="0 0 20 20" fill="none" xmlns="http://www.w3.org/2000/svg">
<path d="M5.83233 17.4955C4.94854 17.4955 4.10095 17.1444 3.47602 16.5195C2.85108 15.8945 2.5 15.047 2.5 14.1632V4.16617C2.5 3.72427 2.67554 3.30048 2.98801 2.98801C3.30048 2.67554 3.72427 2.5 4.16617 2.5H7.4985C7.94039 2.5 8.36419 2.67554 8.67666 2.98801C8.98912 3.30048 9.16467 3.72427 9.16467 4.16617V14.1632C9.16467 15.047 8.81358 15.8945 8.18865 16.5195M5.83233 17.4955C6.71612 17.4955 7.56372 17.1444 8.18865 16.5195M5.83233 17.4955H15.8293C16.2712 17.4955 16.695 17.32 17.0075 17.0075C17.32 16.695 17.4955 16.2712 17.4955 15.8293V12.497C17.4955 12.0551 17.32 11.6313 17.0075 11.3188C16.695 11.0064 16.2712 10.8308 15.8293 10.8308H13.8774M8.18865 16.5195L15.2578 9.45041C15.5702 9.13796 15.7457 8.71424 15.7457 8.27243C15.7457 7.83063 15.5702 7.40691 15.2578 7.09445L12.901 4.73766C12.5886 4.4253 12.1649 4.24983 11.7231 4.24983C11.2813 4.24983 10.8575 4.4253 10.5451 4.73766L9.16467 6.11808M5.83233 14.1632H5.84066" stroke="#F59E0B" stroke-width="1.66617" stroke-linecap="round" stroke-linejoin="round"/>
</svg>
