<svg width="20" height="20" viewBox="0 0 20 20" fill="none" xmlns="http://www.w3.org/2000/svg">
<path d="M2.49023 13.6139C2.61272 13.9229 2.63999 14.2614 2.56854 14.5861L1.6813 17.3269C1.65271 17.4659 1.6601 17.6099 1.70277 17.7453C1.74544 17.8806 1.82198 18.0028 1.92512 18.1003C2.02826 18.1977 2.15458 18.2672 2.29212 18.3022C2.42965 18.3371 2.57383 18.3364 2.71099 18.3L5.55431 17.4685C5.86065 17.4078 6.1779 17.4343 6.46987 17.5452C8.24883 18.376 10.264 18.5517 12.16 18.0415C14.0559 17.5312 15.7107 16.3677 16.8324 14.7563C17.9541 13.1449 18.4706 11.1891 18.2908 9.23396C18.111 7.27883 17.2464 5.45002 15.8496 4.07021C14.4529 2.69039 12.6136 1.84824 10.6564 1.69233C8.69926 1.53643 6.7499 2.07679 5.1523 3.21808C3.5547 4.35937 2.41152 6.02824 1.92447 7.93026C1.43742 9.83227 1.63779 11.8452 2.49023 13.6139Z" stroke="#AF5500" stroke-width="1.66617" stroke-linecap="round" stroke-linejoin="round"/>
</svg>
