<svg width="16" height="16" viewBox="0 0 16 16" fill="none" xmlns="http://www.w3.org/2000/svg">
<g clip-path="url(#clip0_7_9571)">
<path d="M13.3317 6.66683C13.3317 9.9952 9.63938 13.4615 8.39949 14.5321C8.28399 14.619 8.14338 14.6659 7.99886 14.6659C7.85434 14.6659 7.71374 14.619 7.59823 14.5321C6.35835 13.4615 2.66602 9.9952 2.66602 6.66683C2.66602 5.25247 3.22787 3.89604 4.22797 2.89594C5.22807 1.89584 6.5845 1.33398 7.99886 1.33398C9.41322 1.33398 10.7697 1.89584 11.7698 2.89594C12.7699 3.89604 13.3317 5.25247 13.3317 6.66683Z" stroke="#AF5500" stroke-width="1.33321" stroke-linecap="round" stroke-linejoin="round"/>
<path d="M7.99982 8.66565C9.10429 8.66565 9.99964 7.7703 9.99964 6.66583C9.99964 5.56136 9.10429 4.66602 7.99982 4.66602C6.89535 4.66602 6 5.56136 6 6.66583C6 7.7703 6.89535 8.66565 7.99982 8.66565Z" stroke="#AF5500" stroke-width="1.33321" stroke-linecap="round" stroke-linejoin="round"/>
</g>
<defs>
<clipPath id="clip0_7_9571">
<rect width="15.9985" height="15.9985" fill="white"/>
</clipPath>
</defs>
</svg>
