<svg width="20" height="20" viewBox="0 0 20 20" fill="none" xmlns="http://www.w3.org/2000/svg">
<path d="M6.66121 18.3283C7.12131 18.3283 7.49429 17.9553 7.49429 17.4952C7.49429 17.0351 7.12131 16.6621 6.66121 16.6621C6.20111 16.6621 5.82812 17.0351 5.82812 17.4952C5.82812 17.9553 6.20111 18.3283 6.66121 18.3283Z" stroke="white" stroke-width="1.66617" stroke-linecap="round" stroke-linejoin="round"/>
<path d="M15.8253 18.3283C16.2854 18.3283 16.6584 17.9553 16.6584 17.4952C16.6584 17.0351 16.2854 16.6621 15.8253 16.6621C15.3652 16.6621 14.9922 17.0351 14.9922 17.4952C14.9922 17.9553 15.3652 18.3283 15.8253 18.3283Z" stroke="white" stroke-width="1.66617" stroke-linecap="round" stroke-linejoin="round"/>
<path d="M1.71094 1.70703H3.37711L5.59311 12.0539C5.6744 12.4329 5.88525 12.7716 6.18936 13.0119C6.49347 13.2521 6.87182 13.3788 7.25928 13.3702H15.4069C15.786 13.3696 16.1537 13.2397 16.4491 13.0019C16.7444 12.7641 16.9498 12.4326 17.0314 12.0623L18.406 5.87246H4.26851" stroke="white" stroke-width="1.66617" stroke-linecap="round" stroke-linejoin="round"/>
</svg>
