<svg width="14" height="14" viewBox="0 0 14 14" fill="none" xmlns="http://www.w3.org/2000/svg">
<g clip-path="url(#clip0_7_2842)">
<path d="M6.71839 1.33794C6.74394 1.28632 6.78341 1.24287 6.83234 1.21249C6.88128 1.18211 6.93773 1.16602 6.99532 1.16602C7.05292 1.16602 7.10937 1.18211 7.15831 1.21249C7.20724 1.24287 7.24671 1.28632 7.27226 1.33794L8.61904 4.0659C8.70776 4.24545 8.83873 4.40079 9.0007 4.51859C9.16267 4.63639 9.3508 4.71312 9.54896 4.74221L12.5608 5.18297C12.6179 5.19124 12.6715 5.21531 12.7156 5.25247C12.7597 5.28962 12.7926 5.33837 12.8104 5.39321C12.8282 5.44805 12.8304 5.50678 12.8165 5.56277C12.8027 5.61876 12.7735 5.66976 12.7323 5.71002L10.5541 7.83105C10.4104 7.97104 10.303 8.14383 10.2409 8.33457C10.1789 8.5253 10.1641 8.72826 10.1979 8.92597L10.7121 11.9227C10.7222 11.9797 10.716 12.0385 10.6943 12.0922C10.6726 12.1459 10.6362 12.1924 10.5894 12.2264C10.5425 12.2605 10.487 12.2807 10.4292 12.2847C10.3715 12.2887 10.3137 12.2764 10.2626 12.2492L7.57018 10.8336C7.39278 10.7405 7.1954 10.6918 6.99503 10.6918C6.79466 10.6918 6.59728 10.7405 6.41988 10.8336L3.72807 12.2492C3.67696 12.2762 3.61928 12.2884 3.56159 12.2843C3.5039 12.2802 3.44852 12.26 3.40175 12.226C3.35498 12.192 3.31869 12.1455 3.29702 12.0919C3.27534 12.0383 3.26915 11.9797 3.27915 11.9227L3.79279 8.92655C3.82672 8.72875 3.81202 8.52566 3.74996 8.33481C3.6879 8.14396 3.58034 7.97107 3.43656 7.83105L1.2584 5.7106C1.21676 5.67039 1.18726 5.6193 1.17325 5.56314C1.15924 5.50698 1.16129 5.44802 1.17915 5.39297C1.19702 5.33792 1.22998 5.28899 1.2743 5.25176C1.31861 5.21453 1.37249 5.19049 1.4298 5.18239L4.44111 4.74221C4.63948 4.71335 4.82788 4.63671 4.99007 4.5189C5.15226 4.40109 5.2834 4.24563 5.37219 4.0659L6.71839 1.33794Z" fill="#C8A66A" stroke="#C8A66A" stroke-width="1.16604" stroke-linecap="round" stroke-linejoin="round"/>
</g>
<defs>
<clipPath id="clip0_7_2842">
<rect width="13.9925" height="13.9925" fill="white"/>
</clipPath>
</defs>
</svg>
