<svg width="28" height="28" viewBox="0 0 28 28" fill="none" xmlns="http://www.w3.org/2000/svg">
<path d="M18.6631 23.327V4.66481C18.6631 4.04612 18.4174 3.45277 17.9799 3.01529C17.5424 2.57781 16.949 2.33203 16.3304 2.33203H11.6648C11.0461 2.33203 10.4528 2.57781 10.0153 3.01529C9.57781 3.45277 9.33203 4.04612 9.33203 4.66481V23.327" stroke="#0EA5E9" stroke-width="2.33278" stroke-linecap="round" stroke-linejoin="round"/>
<path d="M23.327 6.99805H4.66481C3.37645 6.99805 2.33203 8.04247 2.33203 9.33082V20.9947C2.33203 22.2831 3.37645 23.3275 4.66481 23.3275H23.327C24.6154 23.3275 25.6598 22.2831 25.6598 20.9947V9.33082C25.6598 8.04247 24.6154 6.99805 23.327 6.99805Z" stroke="#0EA5E9" stroke-width="2.33278" stroke-linecap="round" stroke-linejoin="round"/>
</svg>
