<svg width="20" height="20" viewBox="0 0 20 20" fill="none" xmlns="http://www.w3.org/2000/svg">
<path d="M13.3287 16.6615V3.33219C13.3287 2.89029 13.1532 2.46649 12.8407 2.15403C12.5283 1.84156 12.1045 1.66602 11.6626 1.66602H8.33023C7.88834 1.66602 7.46454 1.84156 7.15207 2.15403C6.83961 2.46649 6.66406 2.89029 6.66406 3.33219V16.6615" stroke="#AF5500" stroke-width="1.66617" stroke-linecap="round" stroke-linejoin="round"/>
<path d="M16.6615 4.99805H3.33219C2.41199 4.99805 1.66602 5.74402 1.66602 6.66422V14.9951C1.66602 15.9153 2.41199 16.6612 3.33219 16.6612H16.6615C17.5817 16.6612 18.3277 15.9153 18.3277 14.9951V6.66422C18.3277 5.74402 17.5817 4.99805 16.6615 4.99805Z" stroke="#AF5500" stroke-width="1.66617" stroke-linecap="round" stroke-linejoin="round"/>
</svg>
