<svg width="20" height="20" viewBox="0 0 20 20" fill="none" xmlns="http://www.w3.org/2000/svg">
<path d="M8.32812 9.99609H11.6605" stroke="#0EA5E9" stroke-width="1.66617" stroke-linecap="round" stroke-linejoin="round"/>
<path d="M8.32812 6.66406H11.6605" stroke="#0EA5E9" stroke-width="1.66617" stroke-linecap="round" stroke-linejoin="round"/>
<path d="M11.6605 17.4955V14.9962C11.6605 14.5544 11.4849 14.1306 11.1725 13.8181C10.86 13.5056 10.4362 13.3301 9.99429 13.3301C9.5524 13.3301 9.1286 13.5056 8.81614 13.8181C8.50367 14.1306 8.32812 14.5544 8.32812 14.9962V17.4955" stroke="#0EA5E9" stroke-width="1.66617" stroke-linecap="round" stroke-linejoin="round"/>
<path d="M4.9964 8.33129H3.33023C2.88834 8.33129 2.46454 8.50683 2.15207 8.8193C1.8396 9.13176 1.66406 9.55556 1.66406 9.99745V15.829C1.66406 16.2709 1.8396 16.6947 2.15207 17.0072C2.46454 17.3197 2.88834 17.4952 3.33023 17.4952H16.6596C17.1015 17.4952 17.5253 17.3197 17.8377 17.0072C18.1502 16.6947 18.3258 16.2709 18.3258 15.829V7.4982C18.3258 7.05631 18.1502 6.63251 17.8377 6.32004C17.5253 6.00757 17.1015 5.83203 16.6596 5.83203H14.9934" stroke="#0EA5E9" stroke-width="1.66617" stroke-linecap="round" stroke-linejoin="round"/>
<path d="M5 17.4955V4.16617C5 3.72427 5.17554 3.30048 5.48801 2.98801C5.80048 2.67554 6.22427 2.5 6.66617 2.5H13.3308C13.7727 2.5 14.1965 2.67554 14.509 2.98801C14.8215 3.30048 14.997 3.72427 14.997 4.16617V17.4955" stroke="#0EA5E9" stroke-width="1.66617" stroke-linecap="round" stroke-linejoin="round"/>
</svg>
