<svg width="18" height="18" viewBox="0 0 18 18" fill="none" xmlns="http://www.w3.org/2000/svg">
<path d="M14.9975 7.49876C14.9975 11.2427 10.8441 15.1419 9.44942 16.3462C9.31949 16.4439 9.16133 16.4967 8.99876 16.4967C8.8362 16.4967 8.67804 16.4439 8.54811 16.3462C7.15339 15.1419 3 11.2427 3 7.49876C3 5.90779 3.63201 4.38198 4.757 3.257C5.88198 2.13201 7.40779 1.5 8.99876 1.5C10.5897 1.5 12.1155 2.13201 13.2405 3.257C14.3655 4.38198 14.9975 5.90779 14.9975 7.49876Z" stroke="#AF5500" stroke-width="1.49969" stroke-linecap="round" stroke-linejoin="round"/>
<path d="M8.99954 9.74712C10.2419 9.74712 11.2491 8.73997 11.2491 7.49758C11.2491 6.2552 10.2419 5.24805 8.99954 5.24805C7.75715 5.24805 6.75 6.2552 6.75 7.49758C6.75 8.73997 7.75715 9.74712 8.99954 9.74712Z" stroke="#AF5500" stroke-width="1.49969" stroke-linecap="round" stroke-linejoin="round"/>
</svg>
