<svg width="24" height="24" viewBox="0 0 24 24" fill="none" xmlns="http://www.w3.org/2000/svg">
<path d="M14.999 2H5.99982C5.46943 2 4.96077 2.21069 4.58573 2.58573C4.21069 2.96077 4 3.46943 4 3.99982V19.9984C4 20.5287 4.21069 21.0374 4.58573 21.4124C4.96077 21.7875 5.46943 21.9982 5.99982 21.9982H17.9987C18.5291 21.9982 19.0378 21.7875 19.4128 21.4124C19.7878 21.0374 19.9985 20.5287 19.9985 19.9984V6.99954L14.999 2Z" stroke="#AF5500" stroke-width="1.99982" stroke-linecap="round" stroke-linejoin="round"/>
<path d="M14 2V6C14 6.53043 14.2107 7.03914 14.5858 7.41421C14.9609 7.78929 15.4696 8 16 8H20" stroke="#AF5500" stroke-width="1.99982" stroke-linecap="round" stroke-linejoin="round"/>
<path d="M10 9H8" stroke="#AF5500" stroke-width="1.99982" stroke-linecap="round" stroke-linejoin="round"/>
<path d="M16 12.998H8" stroke="#AF5500" stroke-width="1.99982" stroke-linecap="round" stroke-linejoin="round"/>
<path d="M16 16.998H8" stroke="#AF5500" stroke-width="1.99982" stroke-linecap="round" stroke-linejoin="round"/>
</svg>
