<svg width="23" height="22" viewBox="0 0 23 22" fill="none" xmlns="http://www.w3.org/2000/svg">
<path d="M8.03157 20.6507V17.2872C8.03157 16.4286 8.80315 15.7325 9.75495 15.7325H13.2342C13.6913 15.7325 14.1296 15.8963 14.4528 16.1879C14.776 16.4794 14.9576 16.8749 14.9576 17.2872V20.6507C14.9547 21.0076 15.1099 21.3509 15.3887 21.6042C15.6674 21.8575 16.0468 22 16.4425 22H18.8162C19.9248 22.0026 20.989 21.6071 21.7739 20.9009C22.5589 20.1946 23 19.2357 23 18.2356V8.65355C23 7.84571 22.603 7.07943 21.9161 6.56114L13.8412 0.743456C12.4365 -0.276582 10.424 -0.243648 9.06126 0.821677L1.17059 6.56114C0.451212 7.06415 0.0212475 7.8327 0 8.65355V18.2258C0 20.3102 1.87315 22 4.18379 22H6.5033C7.32517 22 7.9931 21.4018 7.99906 20.6605L8.03157 20.6507Z" fill="#AF5500"/>
</svg>
